<?xml version="1.0" standalone="no"?>
<!DOCTYPE svg PUBLIC "-//W3C//DTD SVG 20010904//EN"
 "http://www.w3.org/TR/2001/REC-SVG-20010904/DTD/svg10.dtd">
<svg version="1.0" xmlns="http://www.w3.org/2000/svg"
 width="480.000000pt" height="480.000000pt" viewBox="0 0 480.000000 480.000000"
 preserveAspectRatio="xMidYMid meet">

<g transform="translate(0.000000,480.000000) scale(0.100000,-0.100000)"
fill="#000000" stroke="none">
<path d="M532 3789 c-47 -14 -109 -79 -123 -131 -23 -89 12 -182 88 -229 l38
-24 1865 0 1865 0 38 24 c21 13 50 42 65 64 23 34 27 52 27 107 0 55 -4 73
-27 107 -15 22 -44 51 -65 64 l-38 24 -1850 2 c-1149 1 -1862 -2 -1883 -8z"/>
<path d="M532 2989 c-47 -14 -109 -79 -123 -131 -23 -89 12 -182 88 -229 l38
-24 1865 0 1865 0 38 24 c21 13 50 42 65 64 23 34 27 52 27 107 0 55 -4 73
-27 107 -15 22 -44 51 -65 64 l-38 24 -1850 2 c-1149 1 -1862 -2 -1883 -8z"/>
<path d="M532 2189 c-47 -14 -109 -79 -123 -131 -23 -89 12 -182 88 -229 l38
-24 1865 0 1865 0 38 24 c21 13 50 42 65 64 23 34 27 52 27 107 0 55 -4 73
-27 107 -15 22 -44 51 -65 64 l-38 24 -1850 2 c-1149 1 -1862 -2 -1883 -8z"/>
<path d="M532 1389 c-47 -14 -109 -79 -123 -131 -23 -89 12 -182 88 -229 l38
-24 1865 0 1865 0 38 24 c21 13 50 42 65 64 23 34 27 52 27 107 0 55 -4 73
-27 107 -15 22 -44 51 -65 64 l-38 24 -1850 2 c-1149 1 -1862 -2 -1883 -8z"/>
</g>
</svg>
