<?xml version="1.0" standalone="no"?>
<!DOCTYPE svg PUBLIC "-//W3C//DTD SVG 20010904//EN"
 "http://www.w3.org/TR/2001/REC-SVG-20010904/DTD/svg10.dtd">
<svg version="1.0" xmlns="http://www.w3.org/2000/svg"
 width="512.000000pt" height="512.000000pt" viewBox="0 0 512.000000 512.000000"
 preserveAspectRatio="xMidYMid meet">

<g transform="translate(0.000000,512.000000) scale(0.100000,-0.100000)"
fill="#000000" stroke="none">
<path d="M1110 4473 c-31 -6 -432 -402 -455 -449 -18 -38 -19 -86 -4 -117 6
-12 311 -320 678 -684 l666 -661 -667 -669 c-521 -520 -670 -676 -678 -703
-22 -76 -13 -89 209 -313 113 -115 219 -216 235 -224 20 -10 46 -14 79 -10
l49 4 669 669 669 669 662 -661 c365 -364 673 -667 685 -673 30 -15 89 -14
121 3 15 8 120 108 233 223 217 219 228 235 214 305 -6 27 -141 167 -677 704
-369 370 -669 676 -667 682 2 6 299 301 659 656 360 356 663 661 673 679 21
39 22 79 2 121 -9 18 -109 125 -223 238 -225 224 -240 234 -317 208 -28 -9
-192 -166 -697 -666 -363 -360 -663 -654 -668 -654 -4 0 -304 293 -666 651
-368 363 -673 657 -691 665 -33 14 -47 15 -93 7z"/>
</g>
</svg>
